<svg width="16" height="16" viewBox="0 0 16 16" fill="none" xmlns="http://www.w3.org/2000/svg">
<g id="Icon/Social/Instagram">
<path id="Combined Shape" fill-rule="evenodd" clip-rule="evenodd" d="M4.99976 0H10.9998C13.7608 0 15.9998 2.239 15.9998 5V11C15.9998 13.761 13.7608 16 10.9998 16H4.99976C2.23876 16 -0.000244141 13.761 -0.000244141 11V5C-0.000244141 2.239 2.23876 0 4.99976 0ZM10.9998 14.5C12.9298 14.5 14.4998 12.93 14.4998 11V5C14.4998 3.07 12.9298 1.5 10.9998 1.5H4.99976C3.06976 1.5 1.49976 3.07 1.49976 5V11C1.49976 12.93 3.06976 14.5 4.99976 14.5H10.9998ZM3.99976 8C3.99976 5.791 5.79076 4 7.99976 4C10.2088 4 11.9998 5.791 11.9998 8C11.9998 10.209 10.2088 12 7.99976 12C5.79076 12 3.99976 10.209 3.99976 8ZM5.49976 8C5.49976 9.378 6.62176 10.5 7.99976 10.5C9.37776 10.5 10.4998 9.378 10.4998 8C10.4998 6.621 9.37776 5.5 7.99976 5.5C6.62176 5.5 5.49976 6.621 5.49976 8ZM12.8328 3.7C12.8328 3.99437 12.5942 4.233 12.2998 4.233C12.0054 4.233 11.7668 3.99437 11.7668 3.7C11.7668 3.40564 12.0054 3.167 12.2998 3.167C12.5942 3.167 12.8328 3.40564 12.8328 3.7Z" fill="#B0B8BC"/>
</g>
</svg>
